# xmcd
#
# Track frame offsets: 
#        150
#        20118
#        33902
#        49692
#        71171
#        88747
#        105753
#        124310
#        143305
#        159359
#        175105
#        199674
#        217262
#        231412
#        251334
#        272555
#
# Disc length: 3934 seconds
#
# Revision: 0
# Processed by: cddbd v1.5.2PL0 Copyright (c) Steve Scherf et al.
# Submitted via: ExactAudioCopy v0.99pb3
#
DISCID=db0f5c10
DTITLE=Secondhand Serenade - A Twist In My Story (Deluxe Edition)
DYEAR=2009
DGENRE=Acoustic
TTITLE0=Like A Knife
TTITLE1=Fall For You
TTITLE2=Maybe
TTITLE3=Stranger
TTITLE4=Your Call
TTITLE5=Suppose
TTITLE6=A Twist In My Story
TTITLE7=Why
TTITLE8=Stay Close, Don't Go
TTITLE9=Pretend
TTITLE10=Goodbye
TTITLE11=Your Call (Radio Edit)
TTITLE12=Fall For You (Acoustic)
TTITLE13=Like A Knife (Acoustic)
TTITLE14=Last Time
TTITLE15=Fix You
EXTD=
EXTT0=
EXTT1=
EXTT2=
EXTT3=
EXTT4=
EXTT5=
EXTT6=
EXTT7=
EXTT8=
EXTT9=
EXTT10=
EXTT11=
EXTT12=
EXTT13=
EXTT14=
EXTT15=
PLAYORDER=
